<svg viewBox="0 0 89 34" fill="none" xmlns="http://www.w3.org/2000/svg">
<path d="M17.019 0H16.019V5.99998H19.019V4.99998H17.019V0Z" fill="#0099FF"/>
<path d="M12.0186 0V5.99998H15.0185V4.99998H13.0186V3.99999H14.0185V2.99999H13.0186V0.999997H15.0185V0H12.0186Z" fill="#0099FF"/>
<path d="M16 7.00195V13.0019H19V12.0019H17V11.0019H18V10.0019H17V8.00195H19V7.00195H16Z" fill="#0099FF"/>
<path d="M9.01904 0H8.01904V5.99998H9.01904L9.01904 4.99999C9.28426 4.99998 9.53861 5.10534 9.72614 5.29288C9.91368 5.48041 10.019 5.73477 10.019 5.99998H11.019C11.019 5.46955 10.8083 4.96084 10.4332 4.58577C10.4036 4.55614 10.3732 4.52754 10.3419 4.49999C10.3732 4.47243 10.4036 4.44383 10.4332 4.4142C10.8083 4.03913 11.019 3.53042 11.019 2.99999L11.019 0H10.019L10.019 2.99999C10.019 3.26521 9.91368 3.51956 9.72614 3.7071C9.53861 3.89463 9.28425 3.99999 9.01904 3.99999L9.01904 0Z" fill="#0099FF"/>
<path fill-rule="evenodd" clip-rule="evenodd" d="M25.019 0H24.019V5.99998H25.019L25.019 4.99998H26.019L26.019 5.99998H27.019L27.019 1.99999C27.019 1.73735 26.9673 1.47728 26.8668 1.23463C26.7663 0.991979 26.619 0.771501 26.4332 0.585785C26.2475 0.400068 26.0271 0.25275 25.7844 0.152241C25.5418 0.0517317 25.2817 1.6436e-07 25.019 0ZM25.019 3.99999L25.019 0.999997C25.1504 0.999997 25.2804 1.02586 25.4017 1.07612C25.523 1.12637 25.6333 1.20003 25.7261 1.29289C25.819 1.38575 25.8927 1.49599 25.9429 1.61731C25.9932 1.73864 26.019 1.86867 26.019 1.99999V3.99999H25.019Z" fill="#0099FF"/>
<path fill-rule="evenodd" clip-rule="evenodd" d="M20.0186 0H21.0186C21.549 0 22.0577 0.210713 22.4328 0.585785C22.8078 0.960856 23.0185 1.46956 23.0185 1.99999C23.0185 2.50345 22.8287 2.98733 22.4887 3.35596C22.5199 3.3824 22.5501 3.41021 22.5792 3.43933C22.8605 3.72063 23.0185 4.10216 23.0185 4.49999C23.0185 4.89781 22.8605 5.27934 22.5792 5.56064C22.2979 5.84195 21.9164 5.99998 21.5185 5.99998H20.0186V0ZM21.7257 2.7071C21.9132 2.51956 22.0185 2.26521 22.0185 1.99999C22.0185 1.73478 21.9132 1.48043 21.7257 1.29289C21.5381 1.10535 21.2838 0.999997 21.0186 0.999997L21.0192 2.99999C21.2842 2.99981 21.5383 2.89447 21.7257 2.7071ZM21.0186 4.99998V3.99999L21.5186 3.99999C21.6512 3.99999 21.7783 4.05267 21.8721 4.14643C21.9659 4.2402 22.0185 4.36738 22.0185 4.49999C22.0185 4.63259 21.9659 4.75977 21.8721 4.85354C21.7783 4.94731 21.6512 4.99998 21.5186 4.99998H21.0186Z" fill="#0099FF"/>
<path d="M1.5 14.998C1.36718 14.998 1.24023 15.0508 1.14648 15.1445C1.10986 15.1816 1.07959 15.2246 1.05615 15.2695C1.01953 15.3398 0.999997 15.418 0.999997 15.498V18.498C0.999997 18.6308 1.05273 18.7578 1.14648 18.8515C1.24023 18.9453 1.36718 18.998 1.5 18.998C1.63281 18.998 1.75976 18.9453 1.85351 18.8515C1.94726 18.7578 1.99999 18.6308 1.99999 18.498V17.998H2.99999V18.498C2.99999 18.8965 2.84179 19.2773 2.56054 19.5586C2.27929 19.8398 1.89794 19.998 1.5 19.998C1.10205 19.998 0.720701 19.8398 0.439452 19.5586C0.158203 19.2773 0 18.8965 0 18.498V15.498C0 15.0996 0.158203 14.7187 0.439452 14.4375C0.720701 14.1562 1.10205 13.998 1.5 13.998C1.89794 13.998 2.27929 14.1562 2.56054 14.4375C2.7163 14.5937 2.83398 14.7793 2.90819 14.9824C2.93261 15.0488 2.95214 15.1172 2.96679 15.1855C2.98876 15.2871 2.99999 15.3926 2.99999 15.498V16.998H1.99999V15.498C1.99999 15.3652 1.94726 15.2383 1.85351 15.1445C1.83056 15.1211 1.80566 15.0996 1.7788 15.082C1.69677 15.0273 1.60009 14.998 1.5 14.998Z" fill="white"/>
<path fill-rule="evenodd" clip-rule="evenodd" d="M26.6177 26.5703C26.8989 26.289 27.0571 25.9082 27.0571 25.5098V22.5098C27.0571 22.4043 27.0459 22.2988 27.0239 22.1973C27.0093 22.1289 26.9897 22.0605 26.9653 21.9941C26.8911 21.791 26.7734 21.6055 26.6177 21.4492C26.3364 21.168 25.9551 21.0098 25.5571 21.0098C25.1592 21.0098 24.7778 21.168 24.4966 21.4492C24.2153 21.7305 24.0571 22.1113 24.0571 22.5098V25.5098C24.0571 25.7246 24.1035 25.9355 24.1904 26.1269C24.2642 26.291 24.3677 26.4414 24.4966 26.5703C24.7778 26.8515 25.1592 27.0097 25.5571 27.0097C25.9551 27.0097 26.3364 26.8515 26.6177 26.5703ZM25.2036 22.1562C25.2974 22.0625 25.4243 22.0098 25.5571 22.0098C25.6572 22.0098 25.7539 22.0391 25.8359 22.0937L25.8755 22.125L25.9106 22.1562C26.0044 22.25 26.0571 22.3769 26.0571 22.5098V25.5098C26.0571 25.6426 26.0044 25.7695 25.9106 25.8633C25.8169 25.957 25.6899 26.0098 25.5571 26.0098C25.4243 26.0098 25.2974 25.957 25.2036 25.8633C25.1099 25.7695 25.0571 25.6426 25.0571 25.5098V22.5098C25.0571 22.4941 25.0576 22.4805 25.0591 22.4648C25.0615 22.4394 25.0659 22.416 25.0718 22.3906C25.0811 22.3535 25.0952 22.3164 25.1133 22.2812C25.1367 22.2363 25.167 22.1934 25.2036 22.1562Z" fill="white"/>
<path fill-rule="evenodd" clip-rule="evenodd" d="M28.3828 24.5C28.1377 24.7734 28.0005 25.1289 28.0005 25.5C28.0005 25.7148 28.0469 25.9258 28.1338 26.1172C28.2075 26.2812 28.311 26.4316 28.4399 26.5605C28.7212 26.8418 29.1025 27 29.5005 27C29.8984 27 30.2798 26.8418 30.561 26.5605C30.8423 26.2793 31.0005 25.8984 31.0005 25.5C31.0005 25.3945 30.9892 25.289 30.9673 25.1875C30.9526 25.1191 30.9331 25.0508 30.9087 24.9844C30.8437 24.8066 30.7456 24.6426 30.6182 24.5C30.8638 24.2266 31.0005 23.8711 31.0005 23.5V22.5C31.0005 22.3945 30.9892 22.2891 30.9673 22.1875C30.9526 22.1191 30.9331 22.0508 30.9087 21.9844C30.8345 21.7812 30.7168 21.5957 30.561 21.4395C30.2798 21.1582 29.8984 21 29.5005 21C29.1025 21 28.7212 21.1582 28.4399 21.4395C28.3027 21.5762 28.1948 21.7363 28.1206 21.9121C28.042 22.0957 28.0005 22.2949 28.0005 22.5V23.5C28.0005 23.7148 28.0469 23.9258 28.1338 24.1172C28.1963 24.2558 28.2803 24.3848 28.3828 24.5ZM29.5005 24C29.5547 24 29.6079 23.9922 29.6582 23.9746C29.7314 23.9492 29.7983 23.9082 29.854 23.8535C29.9477 23.7598 30.0005 23.6328 30.0005 23.5V22.5C30.0005 22.3672 29.9477 22.2402 29.854 22.1465L29.8188 22.1152L29.7793 22.084C29.6973 22.0293 29.6006 22 29.5005 22C29.3677 22 29.2407 22.0527 29.147 22.1465L29.0894 22.2168L29.0566 22.2715L29.0278 22.3398L29.0151 22.3809L29.0024 22.4551L29.0005 22.5V23.5C29.0005 23.6328 29.0532 23.7598 29.147 23.8535C29.2407 23.9473 29.3677 24 29.5005 24ZM29.5005 25C29.3677 25 29.2407 25.0527 29.147 25.1465C29.1255 25.168 29.106 25.1914 29.0889 25.2187L29.0566 25.2715L29.0278 25.3398L29.0151 25.3808L29.0024 25.4551L29.0005 25.5C29.0005 25.6328 29.0532 25.7598 29.147 25.8535C29.2407 25.9473 29.3677 26 29.5005 26C29.543 26 29.585 25.9941 29.6255 25.9844C29.7114 25.9609 29.7905 25.918 29.854 25.8535C29.9477 25.7598 30.0005 25.6328 30.0005 25.5C30.0005 25.3672 29.9477 25.2402 29.854 25.1465L29.8188 25.1152L29.7793 25.084C29.6973 25.0293 29.6006 25 29.5005 25Z" fill="white"/>
<path fill-rule="evenodd" clip-rule="evenodd" d="M7.00048 18.498C7.00048 18.8965 6.84228 19.2773 6.56103 19.5586C6.27978 19.8398 5.89843 19.998 5.50048 19.998C5.10254 19.998 4.72119 19.8398 4.43994 19.5586C4.31103 19.4297 4.20752 19.2793 4.13379 19.1152C4.08887 19.0156 4.05469 18.9121 4.03223 18.8047C4.01123 18.7051 4.00049 18.6015 4.00049 18.498V15.498C4.00049 15.0996 4.15869 14.7187 4.43994 14.4375C4.60596 14.2715 4.80713 14.1484 5.02588 14.0762C5.17724 14.0254 5.3374 13.998 5.50048 13.998C5.89843 13.998 6.27978 14.1562 6.56103 14.4375C6.66503 14.541 6.75194 14.6582 6.8203 14.7852C6.85448 14.8477 6.88378 14.9141 6.90868 14.9824C6.9331 15.0488 6.95263 15.1172 6.96728 15.1855C6.98925 15.2871 7.00048 15.3926 7.00048 15.498V18.498ZM5.50048 14.998C5.36767 14.998 5.24072 15.0508 5.14697 15.1445C5.11035 15.1816 5.08007 15.2246 5.05664 15.2695L5.02783 15.3379L5.01513 15.3789L5.00244 15.4531L5.00049 15.498V16.998H6.00048V15.498C6.00048 15.4316 5.98681 15.3652 5.96142 15.3047C5.93652 15.2461 5.90038 15.1914 5.854 15.1445L5.81884 15.1133L5.77929 15.082C5.69726 15.0273 5.60058 14.998 5.50048 14.998ZM6.00048 17.998H5.00049V18.498C5.00049 18.6308 5.05322 18.7578 5.14697 18.8515C5.24072 18.9453 5.36767 18.998 5.50048 18.998C5.6333 18.998 5.76025 18.9453 5.854 18.8515C5.94775 18.7578 6.00048 18.6308 6.00048 18.498V17.998Z" fill="white"/>
<path d="M32 21H33V25.5C33 25.6328 33.0527 25.7598 33.1465 25.8535C33.2402 25.9473 33.3672 26 33.5 26C33.6328 26 33.7598 25.9473 33.8535 25.8535C33.9473 25.7598 34 25.6328 34 25.5V21H35V25.5C35 25.8984 34.8418 26.2793 34.5605 26.5605C34.2793 26.8418 33.8979 27 33.5 27C33.102 27 32.7207 26.8418 32.4395 26.5605C32.3477 26.4687 32.2686 26.3652 32.2041 26.2558L32.1333 26.1172C32.0464 25.9258 32 25.7148 32 25.5V21Z" fill="white"/>
<path d="M24 7.00195H27V8.00195H26V12.0019H27V13.0019H24V12.0019H25V8.00195H24V7.00195Z" fill="#0099FF"/>
<path d="M32 28H33V32H34V28H35V34H34V33H33V34H32V28Z" fill="white"/>
<path d="M28.0186 0H31.0185V2.99999C31.0185 3.19697 30.9797 3.39203 30.9044 3.57401C30.829 3.756 30.7185 3.92136 30.5792 4.06065C30.4399 4.19994 30.2746 4.31042 30.0926 4.38581C29.9106 4.46119 29.7155 4.49999 29.5186 4.49999C29.4529 4.49999 29.3879 4.51292 29.3272 4.53805C29.2665 4.56317 29.2114 4.6 29.165 4.64643C29.1186 4.69286 29.0817 4.74798 29.0566 4.80864C29.0315 4.86931 29.0186 4.93432 29.0186 4.99998H31.0185V5.99998H28.0186V4.99998C28.0186 4.803 28.0574 4.60795 28.1327 4.42596C28.2081 4.24397 28.3186 4.07862 28.4579 3.93933C28.5972 3.80004 28.7625 3.68955 28.9445 3.61417C29.1265 3.53879 29.3216 3.49999 29.5186 3.49999C29.5842 3.49999 29.6492 3.48706 29.7099 3.46193C29.7706 3.4368 29.8257 3.39997 29.8721 3.35354C29.9185 3.30711 29.9554 3.25199 29.9805 3.19133C30.0056 3.13067 30.0185 3.06565 30.0185 2.99999V0.999997H28.0186V0Z" fill="#0099FF"/>
<path d="M16 21V22L18 22V23.2679C17.849 23.3551 17.7096 23.4619 17.5858 23.5858C17.4001 23.7715 17.2527 23.992 17.1522 24.2346C17.0517 24.4773 17 24.7373 17 25V27H18V25C18 24.8687 18.0259 24.7386 18.0761 24.6173C18.1264 24.496 18.2 24.3857 18.2929 24.2929C18.3857 24.2 18.496 24.1264 18.6173 24.0761C18.7386 24.0259 18.8687 24 19 24V21H16Z" fill="#0099FF"/>
<path d="M25.6173 29.0761C25.7386 29.0259 25.8687 29 26 29V28C25.7374 28 25.4773 28.0517 25.2346 28.1522C24.992 28.2527 24.7715 28.4001 24.5858 28.5858C24.4001 28.7715 24.2527 28.992 24.1522 29.2346C24.0517 29.4773 24 29.7374 24 30V33H26L26 34H27L27 30L26 30L26 32H25L25 30C25 29.8687 25.0259 29.7386 25.0761 29.6173C25.1264 29.496 25.2 29.3857 25.2929 29.2929C25.3857 29.2 25.496 29.1264 25.6173 29.0761Z" fill="white"/>
<path d="M23.0005 14.998V13.998H20.0005V14.998H22.0005C22.0005 15.1294 21.9746 15.2594 21.9244 15.3807C21.8741 15.5021 21.8004 15.6123 21.7076 15.7051C21.6147 15.798 21.5045 15.8717 21.3832 15.9219C21.2618 15.9722 21.1318 15.998 21.0005 15.998L21.0005 16.998C21.1318 16.998 21.2618 17.0239 21.3832 17.0742C21.5045 17.1244 21.6147 17.1981 21.7076 17.2909C21.8004 17.3838 21.8741 17.494 21.9244 17.6154C21.9746 17.7367 22.0005 17.8667 22.0005 17.998V18.498C22.0005 18.6306 21.9478 18.7578 21.854 18.8516C21.7603 18.9454 21.6331 18.998 21.5005 18.998C21.3679 18.998 21.2407 18.9454 21.1469 18.8516C21.0532 18.7578 21.0005 18.6306 21.0005 18.498L21.0005 17.998H20.0005V18.498C20.0005 18.8959 20.1585 19.2774 20.4398 19.5587C20.7211 19.84 21.1027 19.998 21.5005 19.998C21.8983 19.998 22.2798 19.84 22.5611 19.5587C22.8424 19.2774 23.0005 18.8959 23.0005 18.498V17.998C23.0005 17.7354 22.9487 17.4753 22.8482 17.2327C22.7477 16.99 22.6004 16.7695 22.4147 16.5838C22.3851 16.5542 22.3547 16.5256 22.3234 16.498C22.3547 16.4704 22.3851 16.4418 22.4147 16.4123C22.6004 16.2265 22.7477 16.0061 22.8482 15.7634C22.9487 15.5208 23.0005 15.2607 23.0005 14.998Z" fill="#0099FF"/>
<path d="M25 13.998H24V17.498C24 17.695 24.0388 17.8901 24.1142 18.0721C24.1896 18.254 24.3001 18.4194 24.4393 18.5587C24.5786 18.698 24.744 18.8085 24.926 18.8839C24.9504 18.894 24.9751 18.9034 25 18.9122V19.998H26V18.9122C26.0249 18.9034 26.0496 18.894 26.074 18.8839C26.256 18.8085 26.4214 18.698 26.5607 18.5587C26.6999 18.4194 26.8104 18.254 26.8858 18.0721C26.9612 17.8901 27 17.695 27 17.498L27 13.998H26L26 17.498C26 17.5637 25.9871 17.6287 25.9619 17.6894C25.9368 17.75 25.9 17.8052 25.8535 17.8516C25.8071 17.898 25.752 17.9348 25.6913 17.96C25.6307 17.9851 25.5657 17.998 25.5 17.998C25.4343 17.998 25.3693 17.9851 25.3087 17.96C25.248 17.9348 25.1929 17.898 25.1464 17.8516C25.1 17.8052 25.0632 17.75 25.0381 17.6894C25.0129 17.6287 25 17.5637 25 17.498L25 13.998Z" fill="#0099FF"/>
<path d="M9.51904 31.9844C9.5847 31.9844 9.64972 31.9714 9.71038 31.9463C9.77104 31.9212 9.82616 31.8843 9.87259 31.8379C9.91902 31.7915 9.95585 31.7364 9.98098 31.6757C10.0061 31.615 10.019 31.55 10.019 31.4844V27.9844H11.019V31.4844C11.019 31.6813 10.9802 31.8764 10.9049 32.0584C10.8401 32.2146 10.7495 32.3586 10.6371 32.4844C10.7495 32.6101 10.8401 32.7541 10.9049 32.9103C10.9802 33.0923 11.019 33.2874 11.019 33.4844V33.9844H10.019V33.4844C10.019 33.4187 10.0061 33.3537 9.98098 33.293C9.95585 33.2324 9.91902 33.1772 9.87259 33.1308C9.82616 33.0844 9.77104 33.0475 9.71038 33.0224C9.64972 32.9973 9.5847 32.9844 9.51904 32.9844C9.45338 32.9844 9.38836 32.9973 9.3277 33.0224C9.26703 33.0475 9.21192 33.0844 9.16549 33.1308C9.11906 33.1772 9.08223 33.2324 9.0571 33.293C9.03197 33.3537 9.01904 33.4187 9.01904 33.4844L9.01904 33.9844H8.01904V33.4844C8.01904 33.2874 8.05784 33.0923 8.13322 32.9103C8.19794 32.7541 8.28853 32.6101 8.40101 32.4844C8.28853 32.3586 8.19794 32.2146 8.13322 32.0584C8.05784 31.8764 8.01904 31.6813 8.01904 31.4844V27.9844H9.01904L9.01904 31.4844C9.01904 31.55 9.03197 31.615 9.0571 31.6757C9.08223 31.7364 9.11906 31.7915 9.16549 31.8379C9.21192 31.8843 9.26703 31.9212 9.3277 31.9463C9.38836 31.9714 9.45338 31.9844 9.51904 31.9844Z" fill="#0099FF"/>
<path d="M13.0005 20.9981H12.0005V26.998H13.0005V26.4973C13.0006 26.4319 13.0135 26.3671 13.0385 26.3067C13.0637 26.246 13.1005 26.1909 13.1469 26.1445C13.1934 26.0981 13.2485 26.0612 13.3091 26.0361C13.3698 26.011 13.4348 25.9981 13.5005 25.9981C13.5661 25.9981 13.6312 26.011 13.6918 26.0361C13.7525 26.0612 13.8076 26.0981 13.854 26.1445C13.9005 26.1909 13.9373 26.246 13.9624 26.3067C13.9875 26.3674 14.0005 26.4324 14.0005 26.498L14.0005 26.998H15.0005L15.0005 20.9981H14.0005L14.0005 25.0838C13.8401 25.0271 13.671 24.9981 13.5005 24.9981C13.33 24.9981 13.1609 25.0271 13.0005 25.0838L13.0005 20.9981Z" fill="#0099FF"/>
<path d="M33 13.0019H32V7.00195H33L33 10.0019C33 10.1332 33.0259 10.2634 33.0761 10.3846C33.1264 10.506 33.2 10.6162 33.2929 10.709C33.3857 10.8019 33.496 10.8756 33.6173 10.9258C33.7386 10.9761 33.8687 11.0019 34 11.0019L34 7.00195H35L35 13.0019H34L34 12.0019C33.7374 12.0019 33.4773 11.9502 33.2346 11.8497C33.1538 11.8162 33.0754 11.7775 33 11.734L33 13.0019Z" fill="#0099FF"/>
<path d="M36.0049 0.999997L38.0049 0.999997V4.49999C38.0049 4.63259 37.9522 4.75977 37.8584 4.85354C37.7647 4.94731 37.6375 4.99998 37.5049 4.99998C37.3723 4.99998 37.2451 4.94731 37.1513 4.85354C37.0576 4.75977 37.0049 4.63259 37.0049 4.49999V3.99999H36.0049V4.49999C36.0049 4.89781 36.1629 5.27934 36.4442 5.56064C36.7255 5.84195 37.1071 5.99998 37.5049 5.99998C37.9027 5.99998 38.2842 5.84195 38.5655 5.56064C38.8468 5.27934 39.0049 4.89781 39.0049 4.49999V0H36.0049V0.999997Z" fill="#0099FF"/>
<path fill-rule="evenodd" clip-rule="evenodd" d="M37 28H36V34H37C37.2626 34 37.5227 33.9483 37.7654 33.8477C38.008 33.7472 38.2285 33.5999 38.4142 33.4142C38.5999 33.2285 38.7472 33.008 38.8478 32.7654C38.9483 32.5227 39 32.2626 39 32V30C39 29.7374 38.9483 29.4773 38.8478 29.2346C38.7472 28.992 38.5999 28.7715 38.4142 28.5858C38.2285 28.4001 38.008 28.2527 37.7654 28.1522C37.5227 28.0517 37.2626 28 37 28ZM37 33C37.1313 33 37.2614 32.9741 37.3827 32.9239C37.504 32.8736 37.6142 32.8 37.7071 32.7071C37.8 32.6142 37.8736 32.504 37.9239 32.3827C37.9741 32.2613 38 32.1313 38 32V30C38 29.8687 37.9741 29.7386 37.9239 29.6173C37.8736 29.496 37.8 29.3857 37.7071 29.2929C37.6142 29.2 37.504 29.1264 37.3827 29.0761C37.2614 29.0259 37.1313 29 37 29V33Z" fill="white"/>
<path fill-rule="evenodd" clip-rule="evenodd" d="M13.0005 7.00195H12.0005V13.0019H13.0005C13.2631 13.0019 13.5232 12.9502 13.7658 12.8497C14.0085 12.7492 14.229 12.6019 14.4147 12.4161C14.6004 12.2304 14.7477 12.01 14.8482 11.7673C14.9487 11.5247 15.0005 11.2646 15.0005 11.0019V9.00195C15.0005 8.7393 14.9487 8.47923 14.8482 8.23658C14.7477 7.99393 14.6004 7.77345 14.4147 7.58774C14.229 7.40202 14.0085 7.2547 13.7658 7.15419C13.5232 7.05368 13.2631 7.00195 13.0005 7.00195ZM13.0005 12.0019C13.1318 12.0019 13.2618 11.9761 13.3832 11.9258C13.5045 11.8756 13.6147 11.8019 13.7076 11.709C13.8004 11.6162 13.8741 11.5059 13.9244 11.3846C13.9746 11.2633 14.0005 11.1333 14.0005 11.0019V9.00195C14.0005 8.87063 13.9746 8.74059 13.9244 8.61926C13.8741 8.49794 13.8004 8.3877 13.7076 8.29484C13.6147 8.20198 13.5045 8.12832 13.3832 8.07807C13.2618 8.02782 13.1318 8.00195 13.0005 8.00195V12.0019Z" fill="#0099FF"/>
<path d="M5.14697 22.1465C5.24072 22.0527 5.36767 22 5.50048 22C5.60058 22 5.69726 22.0293 5.77929 22.084C5.80615 22.1016 5.83105 22.123 5.854 22.1465C5.94775 22.2402 6.00048 22.3672 6.00048 22.5V23H7.00048V22.5C7.00048 22.3945 6.98925 22.2891 6.96728 22.1875C6.95263 22.1191 6.9331 22.0508 6.90868 21.9844C6.83446 21.7812 6.71679 21.5957 6.56103 21.4395C6.27978 21.1582 5.89843 21 5.50048 21C5.10254 21 4.72119 21.1582 4.43994 21.4395C4.15869 21.7207 4.00049 22.1016 4.00049 22.5V25.5C4.00049 25.8984 4.15869 26.2793 4.43994 26.5605C4.72119 26.8418 5.10254 27 5.50048 27C5.89843 27 6.27978 26.8418 6.56103 26.5605C6.84228 26.2793 7.00048 25.8984 7.00048 25.5V24H5.50048V25H6.00048V25.5C6.00048 25.6328 5.94775 25.7598 5.854 25.8535C5.76025 25.9473 5.6333 26 5.50048 26C5.36767 26 5.24072 25.9473 5.14697 25.8535C5.05322 25.7598 5.00049 25.6328 5.00049 25.5V22.5C5.00049 22.4199 5.02002 22.3418 5.05664 22.2715C5.08007 22.2266 5.11035 22.1836 5.14697 22.1465Z" fill="white"/>
<path d="M29.147 8.14843C29.2407 8.05468 29.3677 8.00195 29.5005 8.00195C29.6006 8.00195 29.6973 8.03125 29.7793 8.08593C29.8061 8.10351 29.831 8.125 29.854 8.14843C29.9477 8.24218 30.0005 8.36914 30.0005 8.50195V9.00195H31.0005V8.50195C31.0005 8.39648 30.9892 8.29101 30.9673 8.18945C30.9526 8.12109 30.9331 8.05273 30.9087 7.98633C30.8345 7.7832 30.7168 7.59765 30.561 7.4414C30.2798 7.16016 29.8984 7.00195 29.5005 7.00195C29.1025 7.00195 28.7212 7.16016 28.4399 7.4414C28.1587 7.72265 28.0005 8.10351 28.0005 8.50195V11.5019C28.0005 11.9004 28.1587 12.2812 28.4399 12.5625C28.7212 12.8437 29.1025 13.0019 29.5005 13.0019C29.8984 13.0019 30.2798 12.8437 30.561 12.5625C30.8423 12.2812 31.0005 11.9004 31.0005 11.5019V10.0019H29.5005V11.0019H30.0005V11.5019C30.0005 11.6348 29.9477 11.7617 29.854 11.8555C29.7602 11.9492 29.6333 12.0019 29.5005 12.0019C29.3677 12.0019 29.2407 11.9492 29.147 11.8555C29.0532 11.7617 29.0005 11.6348 29.0005 11.5019V8.50195C29.0005 8.42187 29.02 8.34375 29.0566 8.27343C29.0801 8.22851 29.1103 8.18554 29.147 8.14843Z" fill="#0099FF"/>
<path fill-rule="evenodd" clip-rule="evenodd" d="M28.0005 28H29.0005C29.2632 28 29.5234 28.0508 29.7656 28.1523C30.0083 28.252 30.229 28.4004 30.4145 28.5859C30.6006 28.7715 30.7476 28.9922 30.8481 29.2344C30.9487 29.4766 31.0005 29.7383 31.0005 30V31C31.0005 31.2617 30.9487 31.5234 30.8481 31.7656C30.7866 31.9141 30.7075 32.0547 30.6133 32.1836C30.5532 32.2637 30.4868 32.3418 30.4145 32.414C30.3213 32.5078 30.2192 32.5918 30.1103 32.664C30.0019 32.7363 29.8862 32.7988 29.7656 32.8476C29.6045 32.916 29.4351 32.9609 29.2622 32.9824C29.1758 32.9941 29.0884 33 29.0005 33V34H28.0005V28ZM29.3833 31.9238C29.2617 31.9746 29.1318 32 29.0005 32V29C29.1318 29 29.2617 29.0254 29.3833 29.0762C29.4575 29.1074 29.5273 29.1465 29.5918 29.1934C29.6328 29.2227 29.6714 29.2559 29.7075 29.293C29.8003 29.3867 29.874 29.4961 29.9243 29.6172C29.9746 29.7383 30.0005 29.8691 30.0005 30V31C30.0005 31.1308 29.9746 31.2617 29.9243 31.3828C29.874 31.5039 29.8003 31.6133 29.7075 31.707C29.6538 31.7617 29.5937 31.8086 29.5293 31.8476C29.4829 31.8769 29.4341 31.9023 29.3833 31.9238Z" fill="white"/>
<path fill-rule="evenodd" clip-rule="evenodd" d="M18.9141 18.998C18.9702 18.8398 19 18.6699 19 18.498V15.498C19 15.3926 18.9888 15.2871 18.9668 15.1855C18.9521 15.1172 18.9326 15.0488 18.9082 14.9824C18.834 14.7793 18.7163 14.5937 18.5605 14.4375C18.2793 14.1562 17.8979 13.998 17.5 13.998C17.102 13.998 16.7207 14.1562 16.4395 14.4375C16.1582 14.7187 16 15.0996 16 15.498V18.498C16 18.7129 16.0464 18.9238 16.1333 19.1152C16.207 19.2793 16.3105 19.4297 16.4395 19.5586C16.7207 19.8398 17.102 19.998 17.5 19.998H19V18.998H18.9141ZM17.5 14.998C17.3672 14.998 17.2402 15.0508 17.1465 15.1445L17.0903 15.2109L17.0561 15.2695L17.0278 15.3379L17.0146 15.3789L17.002 15.4531L17 15.498V18.498C17 18.6308 17.0527 18.7578 17.1465 18.8515C17.2402 18.9453 17.3672 18.998 17.5 18.998C17.6328 18.998 17.7598 18.9453 17.8535 18.8515C17.9473 18.7578 18 18.6308 18 18.498V15.498C18 15.3652 17.9473 15.2383 17.8535 15.1445L17.8184 15.1133L17.7788 15.082C17.6968 15.0273 17.6001 14.998 17.5 14.998Z" fill="#0099FF"/>
<path d="M5.14693 8.1484C5.2407 8.05463 5.36788 8.00195 5.50048 8.00195C5.63309 8.00195 5.76027 8.05463 5.85404 8.1484C5.9478 8.24216 6.00048 8.36934 6.00048 8.50195V9.00195H7.00048V8.50195C7.00048 8.10412 6.84244 7.7226 6.56114 7.44129C6.27984 7.15999 5.89831 7.00195 5.50048 7.00195C5.10266 7.00195 4.72113 7.15999 4.43983 7.44129C4.15852 7.7226 4.00049 8.10412 4.00049 8.50195V9.50195C4.00049 9.69893 4.03929 9.89398 4.11467 10.076C4.19005 10.258 4.30054 10.4233 4.43983 10.5626C4.57911 10.7019 4.74447 10.8124 4.92646 10.8878C5.10845 10.9631 5.3035 11.0019 5.50048 11.0019C5.59937 11.0019 5.69604 11.0313 5.77827 11.0862C5.86049 11.1411 5.92458 11.2192 5.96242 11.3106C6.00027 11.402 6.01017 11.5025 5.99088 11.5995C5.97158 11.6965 5.92396 11.7856 5.85404 11.8555C5.78411 11.9254 5.69502 11.973 5.59803 11.9923C5.50104 12.0116 5.40051 12.0017 5.30914 11.9639C5.21778 11.926 5.13969 11.8619 5.08475 11.7797C5.02981 11.6975 5.00049 11.6008 5.00049 11.5019L4.00049 11.5019C4.00049 11.7986 4.08846 12.0886 4.25328 12.3353C4.4181 12.582 4.65237 12.7742 4.92646 12.8878C5.20055 13.0013 5.50215 13.031 5.79312 12.9731C6.08409 12.9152 6.35136 12.7724 6.56114 12.5626C6.77092 12.3528 6.91378 12.0855 6.97166 11.7946C7.02953 11.5036 6.99983 11.202 6.8863 10.9279C6.77277 10.6538 6.58051 10.4196 6.33384 10.2547C6.08716 10.0899 5.79716 10.0019 5.50048 10.0019C5.43482 10.0019 5.36981 9.98901 5.30914 9.96388C5.24848 9.93876 5.19336 9.90193 5.14693 9.8555C5.1005 9.80907 5.06367 9.75395 5.03855 9.69329C5.01342 9.63262 5.00049 9.56761 5.00049 9.50195V8.50195C5.00049 8.36934 5.05316 8.24216 5.14693 8.1484Z" fill="white"/>
<path d="M21.1469 8.1484C21.2407 8.05463 21.3679 8.00195 21.5005 8.00195C21.6331 8.00195 21.7603 8.05463 21.854 8.1484C21.9478 8.24216 22.0005 8.36934 22.0005 8.50195V9.00195H23.0005V8.50195C23.0005 8.10412 22.8424 7.7226 22.5611 7.44129C22.2798 7.15999 21.8983 7.00195 21.5005 7.00195C21.1027 7.00195 20.7211 7.15999 20.4398 7.44129C20.1585 7.7226 20.0005 8.10412 20.0005 8.50195V9.50195C20.0005 9.69893 20.0393 9.89398 20.1147 10.076C20.1901 10.258 20.3005 10.4233 20.4398 10.5626C20.5791 10.7019 20.7445 10.8124 20.9265 10.8878C21.1084 10.9631 21.3035 11.0019 21.5005 11.0019C21.5994 11.0019 21.696 11.0313 21.7783 11.0862C21.8605 11.1411 21.9246 11.2192 21.9624 11.3106C22.0003 11.402 22.0102 11.5025 21.9909 11.5995C21.9716 11.6965 21.924 11.7856 21.854 11.8555C21.7841 11.9254 21.695 11.973 21.598 11.9923C21.501 12.0116 21.4005 12.0017 21.3091 11.9639C21.2178 11.926 21.1397 11.8619 21.0848 11.7797C21.0298 11.6975 21.0005 11.6008 21.0005 11.5019L20.0005 11.5019C20.0005 11.7986 20.0885 12.0886 20.2533 12.3353C20.4181 12.582 20.6524 12.7742 20.9265 12.8878C21.2005 13.0013 21.5021 13.031 21.7931 12.9731C22.0841 12.9152 22.3514 12.7724 22.5611 12.5626C22.7709 12.3528 22.9138 12.0855 22.9717 11.7946C23.0295 11.5036 22.9998 11.202 22.8863 10.9279C22.7728 10.6538 22.5805 10.4196 22.3338 10.2547C22.0872 10.0899 21.7972 10.0019 21.5005 10.0019C21.4348 10.0019 21.3698 9.98901 21.3091 9.96388C21.2485 9.93876 21.1934 9.90193 21.1469 9.8555C21.1005 9.80907 21.0637 9.75395 21.0385 9.69329C21.0134 9.63262 21.0005 9.56761 21.0005 9.50195V8.50195C21.0005 8.36934 21.0532 8.24216 21.1469 8.1484Z" fill="#0099FF"/>
<path d="M72 21H75V22H74V27H73V22H72V21Z" fill="white"/>
<path d="M80 21H83V22H82V27H81V22H80V21Z" fill="white"/>
<path d="M88 26.5C88 26.2239 88.2239 26 88.5 26V26C88.7761 26 89 26.2239 89 26.5V26.5C89 26.7761 88.7761 27 88.5 27V27C88.2239 27 88 26.7761 88 26.5V26.5Z" fill="white"/>
<path d="M80 18H81V19C81 19.5523 80.5523 20 80 20V20V18Z" fill="white"/>
<path d="M49 14H48V17.5C48 17.697 48.0388 17.892 48.1142 18.074C48.1896 18.256 48.3001 18.4214 48.4393 18.5607C48.5786 18.6999 48.744 18.8104 48.926 18.8858C48.9504 18.8959 48.9751 18.9054 49 18.9142V20H50V18.9142C50.0249 18.9054 50.0496 18.8959 50.074 18.8858C50.256 18.8104 50.4214 18.6999 50.5607 18.5607C50.6999 18.4214 50.8104 18.256 50.8858 18.074C50.9612 17.892 51 17.697 51 17.5L51 14H50L50 17.5C50 17.5657 49.9871 17.6307 49.9619 17.6913C49.9368 17.752 49.9 17.8071 49.8536 17.8536C49.8071 17.9 49.752 17.9368 49.6913 17.9619C49.6307 17.9871 49.5657 18 49.5 18C49.4343 18 49.3693 17.9871 49.3087 17.9619C49.248 17.9368 49.1929 17.9 49.1464 17.8536C49.1 17.8071 49.0632 17.752 49.0381 17.6913C49.0129 17.6307 49 17.5657 49 17.5L49 14Z" fill="white"/>
<path d="M49 21H48V24.5C48 24.697 48.0388 24.892 48.1142 25.074C48.1896 25.256 48.3001 25.4214 48.4393 25.5607C48.5786 25.6999 48.744 25.8104 48.926 25.8858C48.9504 25.8959 48.9751 25.9054 49 25.9142V27H50V25.9142C50.0249 25.9054 50.0496 25.8959 50.074 25.8858C50.256 25.8104 50.4214 25.6999 50.5607 25.5607C50.6999 25.4214 50.8104 25.256 50.8858 25.074C50.9612 24.892 51 24.697 51 24.5L51 21H50L50 24.5C50 24.5657 49.9871 24.6307 49.9619 24.6913C49.9368 24.752 49.9 24.8071 49.8536 24.8536C49.8071 24.9 49.752 24.9368 49.6913 24.9619C49.6307 24.9871 49.5657 25 49.5 25C49.4343 25 49.3693 24.9871 49.3087 24.9619C49.248 24.9368 49.1929 24.9 49.1464 24.8536C49.1 24.8071 49.0632 24.752 49.0381 24.6913C49.0129 24.6307 49 24.5657 49 24.5L49 21Z" fill="white"/>
<path d="M85 21H84V24.5C84 24.697 84.0388 24.892 84.1142 25.074C84.1896 25.256 84.3001 25.4214 84.4393 25.5607C84.5786 25.6999 84.744 25.8104 84.926 25.8858C84.9504 25.8959 84.9751 25.9054 85 25.9142V27H86V25.9142C86.0249 25.9054 86.0496 25.8959 86.074 25.8858C86.256 25.8104 86.4214 25.6999 86.5607 25.5607C86.6999 25.4214 86.8104 25.256 86.8858 25.074C86.9612 24.892 87 24.697 87 24.5L87 21H86L86 24.5C86 24.5657 85.9871 24.6307 85.9619 24.6913C85.9368 24.752 85.9 24.8071 85.8536 24.8536C85.8071 24.9 85.752 24.9368 85.6913 24.9619C85.6307 24.9871 85.5657 25 85.5 25C85.4343 25 85.3693 24.9871 85.3087 24.9619C85.248 24.9368 85.1929 24.9 85.1464 24.8536C85.1 24.8071 85.0632 24.752 85.0381 24.6913C85.0129 24.6307 85 24.5657 85 24.5L85 21Z" fill="white"/>
<path d="M45 20H44V14H45V14.5007C45.0001 14.5661 45.013 14.6309 45.0381 14.6913C45.0632 14.752 45.1 14.8071 45.1464 14.8536C45.1929 14.9 45.248 14.9368 45.3087 14.9619C45.3693 14.9871 45.4343 15 45.5 15C45.5657 15 45.6307 14.9871 45.6913 14.9619C45.752 14.9368 45.8071 14.9 45.8536 14.8536C45.9 14.8071 45.9368 14.752 45.9619 14.6913C45.9871 14.6307 46 14.5657 46 14.5L46 14H47L47 20H46L46 15.9142C45.8396 15.9709 45.6705 16 45.5 16C45.3295 16 45.1604 15.9709 45 15.9142L45 20Z" fill="white"/>
<path d="M45 27H44V21H45V21.5007C45.0001 21.5661 45.013 21.6309 45.0381 21.6913C45.0632 21.752 45.1 21.8071 45.1464 21.8536C45.1929 21.9 45.248 21.9368 45.3087 21.9619C45.3693 21.9871 45.4343 22 45.5 22C45.5657 22 45.6307 21.9871 45.6913 21.9619C45.752 21.9368 45.8071 21.9 45.8536 21.8536C45.9 21.8071 45.9368 21.752 45.9619 21.6913C45.9871 21.6307 46 21.5657 46 21.5L46 21H47L47 27H46L46 22.9142C45.8396 22.9709 45.6705 23 45.5 23C45.3295 23 45.1604 22.9709 45 22.9142L45 27Z" fill="white"/>
<path d="M59.9995 14V20H62.9995V19H60.9995V18H61.9995V17H60.9995V15H62.9995V14H59.9995Z" fill="#0099FF"/>
<path d="M64 21V27H67V26H65V25H66V24H65V22H67V21H64Z" fill="white"/>
<path d="M67.9995 14H70.9995V15H69.9995V19H70.9995V20H67.9995V19H68.9995V15H67.9995V14Z" fill="#0099FF"/>
<path d="M76 21H79V22H78V26H79V27H76V26H77V22H76V21Z" fill="white"/>
<path d="M56 21H59V22H58V26H59V27H56V26H57V22H56V21Z" fill="white"/>
<path d="M76.9995 20H75.9995V14H76.9995L76.9995 17C76.9995 17.1312 77.0254 17.2614 77.0756 17.3827C77.1259 17.504 77.1995 17.6142 77.2924 17.7071C77.3853 17.8 77.4955 17.8736 77.6168 17.9239C77.7381 17.9741 77.8682 18 77.9995 18L77.9995 14H78.9995L78.9995 20H77.9995L77.9995 19C77.7369 19 77.4768 18.9483 77.2341 18.8477C77.1533 18.8143 77.0749 18.7756 76.9995 18.732L76.9995 20Z" fill="#0099FF"/>
<path d="M69 27H68V21H69L69 24C69 24.1312 69.0259 24.2614 69.0761 24.3827C69.1264 24.504 69.2 24.6142 69.2929 24.7071C69.3857 24.8 69.496 24.8736 69.6173 24.9239C69.7386 24.9741 69.8687 25 70 25L70 21H71L71 27H70L70 26C69.7374 26 69.4773 25.9483 69.2346 25.8477C69.1538 25.8143 69.0754 25.7756 69 25.732L69 27Z" fill="white"/>
<path fill-rule="evenodd" clip-rule="evenodd" d="M57 14H56V20H57C57.2626 20 57.5227 19.9483 57.7654 19.8477C58.008 19.7472 58.2285 19.5999 58.4142 19.4142C58.5999 19.2285 58.7472 19.008 58.8478 18.7654C58.9483 18.5227 59 18.2626 59 18V16C59 15.7374 58.9483 15.4773 58.8478 15.2346C58.7472 14.992 58.5999 14.7715 58.4142 14.5858C58.2285 14.4001 58.008 14.2527 57.7654 14.1522C57.5227 14.0517 57.2626 14 57 14ZM57 19C57.1313 19 57.2614 18.9741 57.3827 18.9239C57.504 18.8736 57.6142 18.8 57.7071 18.7071C57.8 18.6142 57.8736 18.504 57.9239 18.3827C57.9741 18.2613 58 18.1313 58 18V16C58 15.8687 57.9741 15.7386 57.9239 15.6173C57.8736 15.496 57.8 15.3857 57.7071 15.2929C57.6142 15.2 57.504 15.1264 57.3827 15.0761C57.2614 15.0259 57.1313 15 57 15V19Z" fill="#0099FF"/>
<path fill-rule="evenodd" clip-rule="evenodd" d="M61 21H60V27H61C61.2626 27 61.5227 26.9483 61.7654 26.8477C62.008 26.7472 62.2285 26.5999 62.4142 26.4142C62.5999 26.2285 62.7472 26.008 62.8478 25.7654C62.9483 25.5227 63 25.2626 63 25V23C63 22.7374 62.9483 22.4773 62.8478 22.2346C62.7472 21.992 62.5999 21.7715 62.4142 21.5858C62.2285 21.4001 62.008 21.2527 61.7654 21.1522C61.5227 21.0517 61.2626 21 61 21ZM61 26C61.1313 26 61.2614 25.9741 61.3827 25.9239C61.504 25.8736 61.6142 25.8 61.7071 25.7071C61.8 25.6142 61.8736 25.504 61.9239 25.3827C61.9741 25.2613 62 25.1313 62 25V23C62 22.8687 61.9741 22.7386 61.9239 22.6173C61.8736 22.496 61.8 22.3857 61.7071 22.2929C61.6142 22.2 61.504 22.1264 61.3827 22.0761C61.2614 22.0259 61.1313 22 61 22V26Z" fill="white"/>
<path d="M73.1465 15.1465C73.2402 15.0527 73.3672 15 73.5 15C73.6001 15 73.6968 15.0293 73.7788 15.084C73.8057 15.1016 73.8306 15.123 73.8535 15.1465C73.9473 15.2402 74 15.3672 74 15.5V16H75V15.5C75 15.3945 74.9888 15.2891 74.9668 15.1875C74.9521 15.1191 74.9326 15.0508 74.9082 14.9844C74.834 14.7812 74.7163 14.5957 74.5605 14.4395C74.2793 14.1582 73.8979 14 73.5 14C73.102 14 72.7207 14.1582 72.4395 14.4395C72.1582 14.7207 72 15.1016 72 15.5V18.5C72 18.8984 72.1582 19.2793 72.4395 19.5605C72.7207 19.8418 73.102 20 73.5 20C73.8979 20 74.2793 19.8418 74.5605 19.5605C74.8418 19.2793 75 18.8984 75 18.5V17H73.5V18H74V18.5C74 18.6328 73.9473 18.7598 73.8535 18.8535C73.7598 18.9473 73.6328 19 73.5 19C73.3672 19 73.2402 18.9473 73.1465 18.8535C73.0527 18.7598 73 18.6328 73 18.5V15.5C73 15.4199 73.0195 15.3418 73.0561 15.2715C73.0796 15.2266 73.1099 15.1836 73.1465 15.1465Z" fill="#0099FF"/>
<path d="M65.1464 15.1464C65.2402 15.0527 65.3674 15 65.5 15C65.6326 15 65.7598 15.0527 65.8535 15.1464C65.9473 15.2402 66 15.3674 66 15.5V16H67V15.5C67 15.1022 66.842 14.7206 66.5607 14.4393C66.2793 14.158 65.8978 14 65.5 14C65.1022 14 64.7206 14.158 64.4393 14.4393C64.158 14.7206 64 15.1022 64 15.5V16.5C64 16.697 64.0388 16.892 64.1142 17.074C64.1896 17.256 64.3001 17.4214 64.4393 17.5606C64.5786 17.6999 64.744 17.8104 64.926 17.8858C65.108 17.9612 65.303 18 65.5 18C65.5989 18 65.6956 18.0293 65.7778 18.0843C65.86 18.1392 65.9241 18.2173 65.9619 18.3086C65.9998 18.4 66.0097 18.5005 65.9904 18.5975C65.9711 18.6945 65.9235 18.7836 65.8535 18.8535C65.7836 18.9235 65.6945 18.9711 65.5975 18.9904C65.5006 19.0097 65.4 18.9998 65.3087 18.9619C65.2173 18.9241 65.1392 18.86 65.0843 18.7778C65.0293 18.6955 65 18.5989 65 18.5L64 18.5C64 18.7967 64.088 19.0867 64.2528 19.3333C64.4176 19.58 64.6519 19.7723 64.926 19.8858C65.2001 19.9993 65.5017 20.029 65.7926 19.9712C66.0836 19.9133 66.3509 19.7704 66.5607 19.5606C66.7704 19.3509 66.9133 19.0836 66.9712 18.7926C67.029 18.5017 66.9993 18.2001 66.8858 17.926C66.7723 17.6519 66.58 17.4176 66.3333 17.2528C66.0867 17.088 65.7967 17 65.5 17C65.4343 17 65.3693 16.9871 65.3087 16.9619C65.248 16.9368 65.1929 16.9 65.1464 16.8535C65.1 16.8071 65.0632 16.752 65.0381 16.6913C65.0129 16.6307 65 16.5657 65 16.5V15.5C65 15.3674 65.0527 15.2402 65.1464 15.1464Z" fill="#0099FF"/>
<path d="M33.5 1C33.3674 1 33.2402 1.05268 33.1464 1.14645C33.0527 1.24021 33 1.36739 33 1.5V4.5C33 4.56566 33.0129 4.63068 33.0381 4.69134C33.0632 4.752 33.1 4.80712 33.1464 4.85355C33.1929 4.89998 33.248 4.93681 33.3087 4.96194C33.3693 4.98707 33.4343 5 33.5 5H35V6H33.5C33.303 6 33.108 5.9612 32.926 5.88582C32.744 5.81044 32.5786 5.69995 32.4393 5.56066C32.3001 5.42137 32.1896 5.25601 32.1142 5.07403C32.0388 4.89204 32 4.69698 32 4.5V1.5C32 1.10218 32.158 0.720644 32.4393 0.43934C32.7206 0.158035 33.1022 0 33.5 0C33.8978 0 34.2794 0.158035 34.5607 0.43934C34.842 0.720644 35 1.10218 35 1.5V4C35 4.27614 34.7761 4.5 34.5 4.5H34C33.7239 4.5 33.5 4.27614 33.5 4V3C33.5 2.72386 33.7239 2.5 34 2.5V1.5C34 1.36739 33.9473 1.24021 33.8536 1.14645C33.7598 1.05268 33.6326 1 33.5 1Z" fill="#0099FF"/>
</svg>
