<svg xmlns="http://www.w3.org/2000/svg" width="40" height="30" fill="none" viewBox="0.5 0 2.5 2">
  <path d="M2 2V1L3 2H2Z" fill="#FFFFFF"/>
  <path d="M1 1.5V2L3 0H1V0.5C1.27614 0.5 1.5 0.723858 1.5 1C1.5 1.27614 1.27614 1.5 1 1.5Z" fill="#FFFFFF"/>
  <path d="M1 0.5C0.934339 0.5 0.869321 0.512933 0.808658 0.53806C0.747995 0.563188 0.692876 0.600017 0.646447 0.646447C0.600017 0.692876 0.563188 0.747995 0.53806 0.808658C0.512933 0.869321 0.5 0.934339 0.5 1C0.5 1.06566 0.512933 1.13068 0.53806 1.19134C0.563188 1.252 0.600017 1.30712 0.646447 1.35355C0.692876 1.39998 0.747996 1.43681 0.808658 1.46194C0.869321 1.48707 0.934339 1.5 1 1.5L1 1L1 0.5Z" fill="#FFFFFF"/>
</svg>
